<?xml version="1.0" encoding="UTF-8" standalone="no"?>
<svg
   viewBox="0 0 60 60"
   x="0px"
   y="0px"
   version="1.1"
   id="svg10"
   sodipodi:docname="Diginsight.Core.svg"
   width="60"
   height="60"
   inkscape:version="1.3.2 (091e20e, 2023-11-25, custom)"
   inkscape:export-filename="Diginsight.Core.png"
   inkscape:export-xdpi="300"
   inkscape:export-ydpi="300"
   xmlns:inkscape="http://www.inkscape.org/namespaces/inkscape"
   xmlns:sodipodi="http://sodipodi.sourceforge.net/DTD/sodipodi-0.dtd"
   xmlns="http://www.w3.org/2000/svg"
   xmlns:svg="http://www.w3.org/2000/svg">
  <defs
     id="defs10" />
  <sodipodi:namedview
     id="namedview10"
     pagecolor="#ffffff"
     bordercolor="#000000"
     borderopacity="0.25"
     inkscape:showpageshadow="2"
     inkscape:pageopacity="0.0"
     inkscape:pagecheckerboard="0"
     inkscape:deskcolor="#d1d1d1"
     inkscape:zoom="14.15"
     inkscape:cx="29.964664"
     inkscape:cy="30"
     inkscape:window-width="1920"
     inkscape:window-height="1027"
     inkscape:window-x="2488"
     inkscape:window-y="575"
     inkscape:window-maximized="1"
     inkscape:current-layer="svg10"
     inkscape:export-bgcolor="#ffffffff" />
  <path
     d="M 41,51 A 1,1 0 0 0 40,50 H 20 a 1,1 0 0 0 0,2 h 20 a 1,1 0 0 0 1,-1 z"
     id="path1"
     style="stroke:none;fill:#aaaa00;fill-opacity:1" />
  <circle
     cx="35.5"
     cy="17.5"
     r="1.5"
     id="circle1"
     style="stroke:none;fill:#000000;fill-opacity:1" />
  <path
     d="m 30,10 a 18.927,18.927 0 0 0 -8.643,2.311 12.952,12.952 0 0 0 0,19.378 A 18.927,18.927 0 0 0 30,34 a 18.918,18.918 0 0 0 8.641,-2.31 12.951,12.951 0 0 0 0,-19.379 A 18.927,18.927 0 0 0 30,10 Z m 9,12 A 9,9 0 1 1 30,13 8.878,8.878 0 0 1 34.414,14.19 3.464,3.464 0 0 1 35.5,14 3.5,3.5 0 0 1 39,17.5 3.458,3.458 0 0 1 38.54,19.2 8.92,8.92 0 0 1 39,22 Z"
     id="path2"
     style="stroke:none;fill:#005500;fill-opacity:1" />
  <path
     d="M 30,36 C 21.408,36 14,29.476 10.349,25.6 a 20.038,20.038 0 0 0 6,11.013 11.493,11.493 0 0 1 3.61,7.387 H 40.044 A 11.664,11.664 0 0 1 43.75,36.525 20.008,20.008 0 0 0 49.676,25.576 C 46.045,29.44 38.616,36 30,36 Z"
     id="path3"
     style="stroke:none;fill:#0033aa;fill-opacity:1" />
  <path
     d="M 49.65,18.4 A 20.109,20.109 0 0 0 31.108,2.03 19.972,19.972 0 0 0 10.336,18.411 C 13.971,14.545 21.394,8 30,8 c 8.606,0 16.005,6.524 19.65,10.4 z"
     id="path4"
     style="stroke:none;fill:#0033aa;fill-opacity:1" />
  <path
     d="m 10.142,22.36 a 43.054,43.054 0 0 0 6.373,6.187 14.884,14.884 0 0 1 0.007,-13.1 43.008,43.008 0 0 0 -6.38,6.192 0.533,0.533 0 0 0 -0.007,0.713 z"
     id="path5"
     style="stroke:none;fill:#0033aa;fill-opacity:1" />
  <path
     d="M 35.5,21 A 3.495,3.495 0 0 1 32.615,15.525 6.923,6.923 0 0 0 30,15 7,7 0 1 0 37,22 6.9,6.9 0 0 0 36.879,20.715 3.481,3.481 0 0 1 35.5,21 Z"
     id="path6"
     style="stroke:none;fill:#000000;fill-opacity:1" />
  <path
     d="m 49.994,22.024 v -0.05 a 0.543,0.543 0 0 0 -0.129,-0.327 43.207,43.207 0 0 0 -6.387,-6.2 14.864,14.864 0 0 1 0,13.1 43.008,43.008 0 0 0 6.38,-6.192 0.557,0.557 0 0 0 0.136,-0.331 z"
     id="path7"
     style="stroke:none;fill:#0033aa;fill-opacity:1" />
  <path
     d="M 42,47 A 1,1 0 0 0 41,46 H 19 a 1,1 0 0 0 0,2 h 22 a 1,1 0 0 0 1,-1 z"
     id="path8"
     style="stroke:none;fill:#aaaa00;fill-opacity:1" />
  <path
     d="m 22.169,54 c 0.765,2.25 4.04,4 7.831,4 3.791,0 7.066,-1.75 7.831,-4 z"
     id="path9"
     style="stroke:none;fill:#aaaa00;fill-opacity:1" />
</svg>
